<?xml version="1.0" standalone="no"?> <!DOCTYPE svg PUBLIC "-//W3C//DTD SVG 1.0//EN" "http://www.w3.org/TR/2001/REC-SVG-20010904/DTD/svg10.dtd" > <svg xmlns="http://www.w3.org/2000/svg" width="100%" height="100%">
<defs >
<font id="ek03plainb02" horiz-adv-x="432" ><font-face
    font-family="EK03Plain-B02"
    units-per-em="1000"
    panose-1="2 0 5 3 0 0 0 0 0 0"
    ascent="874"
    descent="-224"
    alphabetic="0" />
<missing-glyph horiz-adv-x="552" />
<glyph unicode=" " glyph-name="space" horiz-adv-x="250" />
<glyph unicode="!" glyph-name="exclam" horiz-adv-x="401" d="M145 19Q164 0 193 0Q220 0 239 19Q259 37 259 65Q259 92 239 112Q218 131 193 131Q166 131 145 112Q126 93 126 65T145 19ZM220 181L263 651Q265 677 242 695Q218 714 193 714Q164 714 143 696Q120
678 123 651Q125 625 162 181H220Z" />
<glyph unicode="&quot;" glyph-name="quotedbl" horiz-adv-x="377" d="M126 461L153 668Q153 686 137 700Q120 714 98 714T60 700Q44 687 44 668Q44 661 69 460L126 461ZM306 461L332 668Q332 686 316 700Q299 714 278 714Q255 714 239 700Q223 687 223 668Q223
658 249 460L306 461Z" />
<glyph unicode="#" glyph-name="numbersign" horiz-adv-x="563" d="M424 432H534V506H438L473 712H400L363 506H255L292 712H218L181 506H61V432H169L141 271H31V197H127L93 0H167L202 197H310L275 0H349L384 197H509V271H396L424 432ZM351 432L322 271H214L243 432H351Z" />
<glyph unicode="$" glyph-name="dollar" horiz-adv-x="555" d="M502 219Q502 299 427 365Q404 384 305 445Q305 666 307 666Q382 666 439 594L456 568V665Q398 712 305 721V768H239V722Q159 714 103 673Q37 624 40 549Q41 481 79 431Q117 378 212 327Q224 320
239 312V68Q219 64 194 64Q147 64 107 87Q62 110 42 149V43Q124 0 202 0H239V-58H305V8Q365 19 417 54Q502 119 502 219ZM239 489Q179 537 179 579Q179 632 239 655V489ZM362 172Q362 122 305 90V265Q362 217 362 172Z" />
<glyph unicode="%" glyph-name="percent" horiz-adv-x="763" d="M690 714H561L105 0H234L690 714ZM287 673Q250 724 184 724Q129 724 91 677Q54 631 54 556Q54 470 92 428Q126 388 184 388Q245 388 284 445Q319 495 319 559Q319 627 287 673ZM228 484Q214 433
186 433Q156 433 144 484Q136 513 136 560Q136 600 145 634Q157 683 186 683Q213 683 227 634Q236 601 236 560T228 484ZM712 277Q674 328 609 328Q554 328 516 281Q479 235 479 160Q479 74 517 32Q552 -7 609 -7Q671 -7 709 49Q744 99 744 163Q744 231 712 277ZM653
88Q638 37 610 37Q581 37 569 88Q561 117 561 164Q561 205 570 238Q582 287 610 287T652 238Q661 205 661 164T653 88Z" />
<glyph unicode="&amp;" glyph-name="ampersand" horiz-adv-x="713" d="M551 130Q597 186 619 222Q630 238 666 306L607 399Q596 342 564 281Q543 244 510 198L356 442Q465 497 474 605Q474 660 428 695Q388 725 327 725Q263 725 216 687Q164 645 164 576Q164 502
222 410L195 390Q149 356 109 300Q57 227 57 161Q57 109 87 67Q141 -6 258 -6Q355 -6 449 50L480 0H636L551 130ZM326 492Q301 527 292 582Q287 625 302 645Q316 666 335 666Q378 666 372 589Q364 532 326 492ZM315 84Q246 84 209 141Q182 180 182 227Q182 303
250 365L410 110Q364 84 315 84Z" />
<glyph unicode="&apos;" glyph-name="quotesingle" horiz-adv-x="218" d="M153 460L179 667Q179 686 163 700Q146 714 125 714Q102 714 86 700Q70 687 70 667Q70 658 96 459L153 460Z" />
<glyph unicode="(" glyph-name="parenleft" horiz-adv-x="371" d="M296 -212H247Q88 -32 76 284Q79 377 97 458Q138 653 245 769H296Q195 560 187 287Q189 202 200 128Q227 -58 296 -212Z" />
<glyph unicode=")" glyph-name="parenright" horiz-adv-x="334" d="M92 -212H44Q144 12 153 288Q150 376 139 444Q112 629 44 771H94Q249 602 263 285Q257 190 241 109Q199 -90 92 -212Z" />
<glyph unicode="*" glyph-name="asterisk" horiz-adv-x="458" d="M324 589T292 581T242 565Q268 551 306 543Q339 535 350 524Q363 509 363 499Q363 490 356 483Q348 477 340 477Q324 477 303 492Q286 505 268 524Q247 544 236 551Q236 534 245 497Q255 454 255
448Q255 434 247 423Q238 413 228 413Q217 413 210 423Q202 431 202 446Q202 464 212 497Q223 533 223 551Q208 544 190 524Q167 500 158 493Q140 478 123 478Q110 478 103 484T96 500Q96 521 121 533Q140 541 173 549Q207 557 217 565Q201 573 170 581Q136 590
121 597Q98 608 98 629Q98 652 119 652Q138 652 159 634L194 599Q211 580 223 576Q223 592 213 627Q204 658 204 677Q204 693 211 703Q219 714 230 714T249 704Q257 693 257 676Q257 662 246 627Q236 596 236 576Q249 579 268 600L301 633Q319 651 338 651Q347
651 356 644Q364 638 364 629Q364 610 342 597Q324 589 292 581Z" />
<glyph unicode="+" glyph-name="plus" horiz-adv-x="572" d="M529 250V318H321V526H253V318H44V250H253V41H321V250H529Z" />
<glyph unicode="," glyph-name="comma" horiz-adv-x="282" d="M104 -156L94 -135Q144 -101 168 -65Q186 -36 186 -15Q186 -6 181 -3Q177 1 170 1L160 -1Q152 -3 143 -3Q118 -3 101 11Q80 28 80 57Q80 83 99 101Q116 118 139 118Q169 118 194 99Q230 70 230 10Q230
-26 204 -66Q182 -101 151 -126Q124 -150 104 -156Z" />
<glyph unicode="-" glyph-name="hyphen" horiz-adv-x="330" d="M289 392H41V288H289V392Z" />
<glyph unicode="." glyph-name="period" horiz-adv-x="280" d="M99 8Q119 -10 144 -10T190 8Q209 27 209 53Q209 78 190 97Q170 115 144 115Q117 115 99 97Q80 79 80 53Q80 26 99 8Z" />
<glyph unicode="/" glyph-name="slash" horiz-adv-x="352" d="M243 774L-13 -211H95L351 774H243Z" />
<glyph unicode="0" glyph-name="zero" horiz-adv-x="593" d="M382 572Q407 488 407 360T381 149Q366 104 346 82T301 61Q248 61 221 149Q195 224 195 359Q195 661 301 661Q353 661 382 572ZM480 98Q547 203 549 358Q549 527 488 625Q425 724 304 724Q187 724 123
627Q60 530 60 358Q60 177 130 82Q195 -10 310 -10Q411 -10 480 98Z" />
<glyph unicode="1" glyph-name="one" horiz-adv-x="444" d="M322 0V726Q286 706 246 692Q146 655 55 652V590L184 611V0H322Z" />
<glyph unicode="2" glyph-name="two" horiz-adv-x="551" d="M345 266Q264 137 228 70H326Q446 70 497 103V0H30Q92 135 237 355Q349 524 354 576Q362 667 289 667Q282 667 270 665Q243 659 217 646Q154 613 109 547V658Q194 718 303 724Q403 724 452 686T499 573Q498
528 452 442Q422 388 345 266Z" />
<glyph unicode="3" glyph-name="three" horiz-adv-x="509" d="M414 714Q366 655 264 514Q359 483 412 410Q459 342 459 258Q459 160 398 84Q334 4 231 -8Q211 -10 201 -10Q153 -10 105 5Q73 14 60 22V137Q76 112 112 88Q152 61 195 58Q260 49 306 95Q348 136 348
199Q348 274 288 329Q218 394 91 406L261 644H217Q101 644 71 628V714H414Z" />
<glyph unicode="4" glyph-name="four" horiz-adv-x="588" d="M539 260H449V444H326V260L280 259L197 261Q271 434 417 714H341H263Q250 688 224 629L152 485Q68 312 20 190L326 189V0H449V189H464Q514 189 539 182V260Z" />
<glyph unicode="5" glyph-name="five" horiz-adv-x="516" d="M79 406Q79 536 81 714H400V628Q374 644 254 644H154V535Q305 519 388 437Q458 364 458 261Q458 163 396 84Q331 4 232 -8Q212 -10 203 -10Q154 -10 106 5Q74 13 60 22V137Q76 111 111 88Q153 60 193
57Q258 50 303 93Q343 135 343 198Q343 273 282 331Q210 397 79 406Z" />
<glyph unicode="6" glyph-name="six" horiz-adv-x="572" d="M469 440Q412 514 323 514Q296 511 281 503Q233 482 206 429Q206 521 243 589Q282 666 348 666Q401 666 455 607V696Q402 724 349 724Q228 724 148 618Q70 516 61 364Q60 348 60 318Q60 133 151 49Q213
-10 301 -10Q400 -10 462 61Q526 133 526 249T469 440ZM379 110Q349 56 304 56Q260 56 228 110Q196 162 196 246Q196 328 228 383Q260 440 304 440Q346 440 378 383Q410 325 410 246Q410 166 379 110Z" />
<glyph unicode="7" glyph-name="seven" horiz-adv-x="511" d="M492 714Q344 465 226 0H80Q121 148 156 250Q245 520 317 644H191Q88 644 62 629L60 714H492Z" />
<glyph unicode="8" glyph-name="eight" horiz-adv-x="576" d="M527 215Q527 357 369 444Q460 509 460 579Q460 643 415 682Q384 707 332 718Q315 719 288 723Q200 723 147 673Q97 626 97 556Q97 464 181 395Q60 296 60 189Q60 91 132 37Q194 -10 283 -10Q382 -10
454 53Q527 117 527 215ZM226 639Q251 659 293 659Q336 659 363 638T390 583Q390 529 304 478Q201 526 201 582Q201 618 226 639ZM407 139T368 103T274 67Q217 67 182 105Q145 142 145 200Q145 293 237 357Q333 304 348 294Q407 249 407 188Q407 139 368 103Z"
/>
<glyph unicode="9" glyph-name="nine" horiz-adv-x="562" d="M437 659Q375 724 286 724Q188 724 125 653Q60 581 60 462Q60 341 116 270T265 199Q311 199 348 230Q366 245 380 270Q374 181 339 123Q300 56 239 56Q171 56 116 129V29Q129 18 161 7Q203 -10 237
-10Q360 -10 443 95Q526 201 526 351Q526 562 437 659ZM359 332Q328 274 283 274T208 332Q177 388 177 472Q177 553 208 609Q238 666 283 666T359 609Q391 551 391 472Q391 390 359 332Z" />
<glyph unicode=":" glyph-name="colon" horiz-adv-x="288" d="M99 385Q117 367 144 367Q170 367 190 385Q209 404 209 430Q209 455 190 474Q169 493 144 493Q118 493 99 474Q80 456 80 430Q80 403 99 385ZM99 19Q117 1 144 1Q170 1 190 19Q209 38 209 64Q209 89
190 108Q170 126 144 126Q117 126 99 108Q80 90 80 64Q80 37 99 19Z" />
<glyph unicode=";" glyph-name="semicolon" horiz-adv-x="289" d="M80 407T99 389T145 371T192 389T212 434Q212 460 192 480Q171 499 145 499Q120 499 99 480Q80 462 80 434Q80 407 99 389ZM107 -163L96 -141Q146 -109 174 -68Q193 -36 193 -15Q193 1 176 1L165
-1Q157 -3 148 -3Q121 -3 101 13T81 59Q81 87 100 105Q121 124 143 124Q175 124 201 104Q239 74 239 10Q239 -43 186 -104Q140 -152 107 -163Z" />
<glyph unicode="&lt;" glyph-name="less" horiz-adv-x="518" d="M478 526L42 291L478 49V129L189 288L478 446V526Z" />
<glyph unicode="=" glyph-name="equal" horiz-adv-x="492" d="M453 425H44V362H453V425ZM453 262H44V198L453 199V262Z" />
<glyph unicode="&gt;" glyph-name="greater" horiz-adv-x="494" d="M44 49L479 286L42 525V445L332 288L44 128V49Z" />
<glyph unicode="?" glyph-name="question" horiz-adv-x="526" d="M195 19Q214 0 243 0Q271 0 291 19Q311 37 311 65Q311 91 291 111Q269 130 243 130Q216 130 195 111Q176 92 176 65Q176 37 195 19ZM272 172H213Q203 254 206 300Q216 389 278 448Q356 520 348
589Q344 633 305 660Q266 685 217 679Q188 672 162 659Q103 629 70 569V660Q131 729 237 747Q324 759 393 707Q460 656 471 574Q483 455 365 352Q262 259 272 172Z" />
<glyph unicode="@" glyph-name="at" horiz-adv-x="913" d="M778 610Q677 720 527 720Q346 720 207 584Q69 449 42 252Q36 212 36 173Q36 4 132 -104Q230 -215 397 -215Q548 -215 682 -102V-47Q525 -171 406 -171Q268 -171 188 -72Q112 20 112 173Q112 212 118
252Q140 427 258 552Q375 677 518 677Q644 677 727 577Q810 476 810 327Q810 296 807 265Q795 176 751 112Q708 50 658 50Q614 50 614 102Q614 120 620 147L699 472H609L599 432Q573 490 497 490Q382 490 303 387Q227 292 227 168Q227 0 367 0Q425 0 472 31Q513
57 525 91Q544 0 646 0Q714 0 768 47Q848 113 872 264Q878 303 878 340Q878 498 778 610ZM540 252T495 156T402 60Q347 60 347 165Q347 262 391 347Q436 434 487 434Q540 434 540 362Q540 252 495 156Z" />
<glyph unicode="A" glyph-name="A" horiz-adv-x="625" d="M617 0L344 714H233Q222 654 210 612L0 0H96L188 267H375L472 0H617ZM351 332H210L278 530L351 332Z" />
<glyph unicode="B" glyph-name="B" horiz-adv-x="626" d="M478 390Q446 407 437 406Q485 418 512 466Q536 505 536 554Q530 603 508 635Q452 715 315 715H80V0H359Q493 0 547 114Q569 159 574 226Q574 284 541 332Q514 367 478 390ZM219 659L325 658Q369 656 393
623Q415 592 415 548Q415 507 395 475Q374 444 340 444L219 443V659ZM396 91Q361 59 311 59H219V391H302Q385 391 423 327Q448 282 448 224Q448 135 396 91Z" />
<glyph unicode="C" glyph-name="C" horiz-adv-x="606" d="M144 607Q240 724 395 724Q475 724 529 707Q562 695 566 688L567 576Q534 668 415 668Q328 668 270 578Q206 484 206 332Q206 194 287 119Q350 59 435 59Q504 59 565 139V24Q559 21 547 16Q524 4 494 0Q444
-10 397 -10Q244 -10 152 79Q53 174 53 340Q53 497 144 607Z" />
<glyph unicode="D" glyph-name="D" horiz-adv-x="687" d="M588 535Q513 714 323 714H82V0H323Q444 0 535 105Q626 211 626 355Q620 459 588 535ZM431 141Q379 62 294 60Q293 60 284 60T258 60T220 59V659H276Q373 659 431 568Q483 482 483 356Q483 221 431 141Z" />
<glyph unicode="E" glyph-name="E" horiz-adv-x="534" d="M529 118Q501 71 410 71H211L212 390L304 391Q331 390 352 388Q403 382 426 369Q406 456 289 456H212V485V487V489V492V494V496V498V500V503V505V507V509V511V514V516V518V520V522V525V527V529V531V533V536V538V540V542V545V547V549V551V554V556V558V560V563V565V567V569V572V574V576V578V581V583V585V588V590V592V595V597V599V602V604V606V609V611V614V616V618V621V623V626V628V631V634V636V645H297Q374
644 414 640Q470 631 518 600Q511 664 442 694Q394 714 339 714H74V0H415Q469 0 502 40Q529 73 529 118Z" />
<glyph unicode="F" glyph-name="F" horiz-adv-x="482" d="M214 0L213 391L307 392Q339 390 355 388Q408 382 429 369Q403 457 292 457H213V645H296Q368 645 411 640Q475 629 517 601Q508 667 438 696Q394 714 337 714H74V0H214Z" />
<glyph unicode="G" glyph-name="G" horiz-adv-x="700" d="M481 -1Q573 14 621 56V407H470Q493 357 495 240V81Q475 61 436 59Q358 59 290 123Q201 202 201 340Q201 492 264 586Q323 674 409 674Q527 674 566 581L567 688Q510 724 398 724Q242 724 146 607Q54 497
54 340Q54 174 153 79Q245 -10 398 -10Q442 -8 481 -1Z" />
<glyph unicode="H" glyph-name="H" horiz-adv-x="665" d="M585 0V714H447V458H217V714H79L80 0H218V390H447V0H585Z" />
<glyph unicode="I" glyph-name="I" horiz-adv-x="354" d="M246 0V713H108V0H246Z" />
<glyph unicode="J" glyph-name="J" horiz-adv-x="499" d="M363 43Q422 95 424 192V714H287V190Q287 125 264 94Q239 62 181 62Q125 62 86 91Q58 108 37 143Q19 172 21 172V35Q72 -10 207 -10Q304 -10 363 43Z" />
<glyph unicode="K" glyph-name="K" horiz-adv-x="659" d="M649 0L458 313Q409 393 327 411L563 714H444L348 595Q304 540 271 471Q228 384 218 313L217 714H79L80 0H218V137Q218 246 284 351Q308 330 342 274L502 0H649Z" />
<glyph unicode="L" glyph-name="L" horiz-adv-x="533" d="M474 83Q439 70 403 70H222V714H83V0H412Q452 0 487 34Q523 68 523 117Q507 94 474 83Z" />
<glyph unicode="M" glyph-name="M" horiz-adv-x="810" d="M722 0V714H535L426 349Q416 319 401 220L261 714H76Q84 647 86 594V0H178V562L343 0H452Q448 11 448 32Q448 62 454 104Q456 124 584 562V0H722Z" />
<glyph unicode="N" glyph-name="N" horiz-adv-x="650" d="M452 1L559 0V714H474L473 629V263L256 714H77Q87 661 87 593V1H173L174 560L452 1Z" />
<glyph unicode="O" glyph-name="O" horiz-adv-x="738" d="M586 616Q488 724 354 724Q221 724 124 615Q28 506 28 357Q28 194 119 93Q210 -10 354 -10Q502 -10 594 97Q683 201 683 357Q683 507 586 616ZM489 143Q437 55 356 55Q273 55 222 143Q173 228 173 357T223
571Q274 658 356 658Q436 658 487 571T538 357T489 143Z" />
<glyph unicode="P" glyph-name="P" horiz-adv-x="596" d="M491 664Q427 714 319 714H86V0H225L226 288H326Q422 288 486 340Q560 399 560 506Q560 610 491 664ZM395 402Q359 347 300 347H226L227 657H305Q359 657 394 608Q425 562 425 509Q425 447 395 402Z" />
<glyph unicode="Q" glyph-name="Q" horiz-adv-x="775" d="M609 0H745Q692 41 649 130Q713 229 713 357Q713 507 616 616Q518 724 384 724Q251 724 154 615Q58 506 58 357Q58 194 149 93Q240 -10 384 -10Q488 -10 569 47Q589 19 609 0ZM508 147Q508 130 498 115Q454
56 385 56Q302 56 252 145Q203 228 203 358Q203 486 252 571Q303 660 385 660T518 571Q568 485 568 358Q568 276 551 225Q500 258 434 264Q464 240 485 210Q508 173 508 147Z" />
<glyph unicode="R" glyph-name="R" horiz-adv-x="635" d="M618 0L481 237Q428 329 369 356Q429 359 481 403Q541 456 541 536Q541 714 288 714H87L86 0H225V343H235Q293 343 371 200L480 0H618ZM364 432Q334 399 291 399H225V660H273Q401 660 401 534Q401 469 364 432Z" />
<glyph unicode="S" glyph-name="S" horiz-adv-x="566" d="M224 326Q375 243 375 171Q375 125 328 93Q281 62 206 62Q167 62 128 80Q75 103 53 147V41Q136 -10 244 -10T431 51Q516 118 516 217Q516 297 440 365Q405 393 314 447Q191 519 191 580Q191 614 219 638Q253
667 320 667Q363 667 403 641Q427 625 453 594Q470 571 470 569V666Q400 724 279 724Q179 724 114 674Q48 623 51 550Q53 482 90 431Q133 375 224 326Z" />
<glyph unicode="T" glyph-name="T" horiz-adv-x="485" d="M315 642Q319 594 319 567V0H180V567Q180 605 173 640Q10 640 -20 714H345Q498 713 510 622Q466 641 386 641L315 642Z" />
<glyph unicode="U" glyph-name="U" horiz-adv-x="694" d="M220 714V223Q220 143 252 107Q283 69 358 69Q424 69 463 114Q497 156 497 218V714H613L612 223Q612 132 560 71Q492 -10 347 -10Q220 -10 153 50Q81 110 81 224V714H220Z" />
<glyph unicode="V" glyph-name="V" horiz-adv-x="604" d="M207 0L11 714H154L307 120L437 552Q464 644 467 714H583Q587 698 587 686Q587 640 563 562L453 230Q416 120 411 99Q392 38 392 0H207Z" />
<glyph unicode="W" glyph-name="W" horiz-adv-x="907" d="M405 501Q405 582 378 714H505L627 94L765 552Q792 648 792 714H893Q897 698 897 685Q897 640 873 562L761 214Q732 122 724 93Q710 43 710 0H523L463 318L402 93Q387 40 392 0H202L17 714H159L312 99L379
344Q405 452 405 501Z" />
<glyph unicode="X" glyph-name="X" horiz-adv-x="601" d="M442 0H586L357 401L498 642Q525 694 524 714H433Q433 695 416 664L312 485L182 714H42L239 364L17 0H124L287 279L442 0Z" />
<glyph unicode="Y" glyph-name="Y" horiz-adv-x="645" d="M639 714H493Q494 696 472 621Q469 614 355 270Q344 256 324 256Q276 256 240 370L135 714H11L126 353Q177 193 285 193Q312 193 331 203L264 0H396L639 714Z" />
<glyph unicode="Z" glyph-name="Z" horiz-adv-x="601" d="M564 109Q536 74 446 71L224 72L573 714H230Q174 714 121 680Q70 647 53 603Q88 631 139 640Q160 643 219 643H379L28 0H413Q468 0 508 21Q564 48 564 109Z" />
<glyph unicode="[" glyph-name="bracketleft" horiz-adv-x="453" d="M100 767V-212H206Q330 -212 357 -120Q314 -144 238 -142H205V698H238Q314 698 357 676Q330 767 206 767H100Z" />
<glyph unicode="\" glyph-name="backslash" horiz-adv-x="438" d="M119 771L370 -212H262L11 771H119Z" />
<glyph unicode="]" glyph-name="bracketright" horiz-adv-x="415" d="M315 771V-212H209Q84 -212 58 -120Q99 -142 176 -142H209V702H176Q99 702 58 680Q84 771 209 771H315Z" />
<glyph unicode="^" glyph-name="asciicircum" horiz-adv-x="540" d="M70 366H164L271 556Q282 535 377 366H470L270 726L70 366Z" />
<glyph unicode="_" glyph-name="underscore" horiz-adv-x="396" d="M396 -2H0V-106H396V-2Z" />
<glyph unicode="`" glyph-name="grave" horiz-adv-x="289" d="M151 669Q97 696 35 708V724H182Q201 716 226 688Q254 654 278 597H251Q210 639 151 669Z" />
<glyph unicode="a" glyph-name="a" horiz-adv-x="482" d="M378 491Q332 532 258 532Q183 532 128 485V404Q140 431 163 448Q192 472 227 472Q269 472 290 446Q305 428 305 407Q305 376 290 358Q273 338 241 324Q139 278 113 258Q40 204 40 127Q40 106 44 89Q62
-6 169 -6Q213 -6 249 17Q281 35 295 61V0H416V397Q416 453 378 491ZM276 69Q254 50 221 50Q194 50 177 67Q154 87 151 123Q147 176 177 217Q197 243 241 271Q286 299 293 308V89Q294 84 276 69Z" />
<glyph unicode="b" glyph-name="b" horiz-adv-x="558" d="M461 446Q407 532 312 532H311H312Q288 530 270 526Q224 512 199 481V714H75V134Q75 71 131 33Q186 -6 278 -6Q374 -6 438 63Q507 138 507 262Q507 369 461 446ZM369 269Q369 37 284 37Q233 37 199 116V394Q223
446 281 446Q369 446 369 269Z" />
<glyph unicode="c" glyph-name="c" horiz-adv-x="464" d="M108 444Q174 527 283 532Q362 534 421 505V424Q394 487 328 487Q324 487 318 487T309 486Q252 483 217 415Q183 350 183 268Q183 203 200 152Q222 84 267 63Q298 49 326 49Q379 49 421 98V15Q373 -6 294
-6Q182 -6 113 66T44 250Q44 365 108 444Z" />
<glyph unicode="d" glyph-name="d" horiz-adv-x="532" d="M474 99V714H349V490Q340 504 314 518Q286 532 260 532Q167 532 105 455Q43 375 43 247Q43 146 105 72Q171 -6 266 -6Q406 -6 474 99ZM349 72Q326 50 302 50Q178 50 178 240Q178 350 189 400Q207 485 260
485Q319 485 349 418V72Z" />
<glyph unicode="e" glyph-name="e" horiz-adv-x="484" d="M323 53Q291 53 264 66Q203 93 193 177Q216 207 277 234Q342 264 385 308Q430 354 430 406T384 496Q338 532 268 532Q162 530 100 445Q43 366 43 251Q43 138 111 67Q180 -6 283 -6Q312 -5 338 0Q399 9
429 36L430 116Q386 53 323 53ZM239 277Q191 242 184 235Q183 249 183 281Q183 479 260 485Q289 487 303 472T318 423Q318 378 297 341Q277 304 239 277Z" />
<glyph unicode="f" glyph-name="f" horiz-adv-x="378" d="M290 664Q345 664 375 611V686Q342 721 251 724Q172 724 133 679Q103 643 103 599V513L12 514Q36 454 103 454V394V392V390V388V386V384V382V380V377V375V373V371V369V367V365V363V361V359V357V355V353V351V348V346V344V342V340V338V336V334V332V330V328V326V324V322V319V317V315V313V311V309V307V305V303V301V299V297V295V292V290V288V286V284V282V280V278V276V274V272V270V268V265V263V261V259V257V255V253V251V249V247V245V243V241V238V236V234V232V230V228V226V224V222V220V218V215V213V211V209V207V205V203V201V199V197V195V193V190V188V186V184V182V180V178V176V174V172V170V167V165V163V161V159V157V155V153V151V149V146V144V142V140V138V136V134V132V130V128V125V123V121V119V117V115V113V111V109V106V104V102V100V98V96V94V92V89V87V85V83V81V79V77V75V72V70V68V66V64V62V60V57V55V53V51V49V47V44V42V40V38V36V34V31V29V27V25V23V20V18V16V14V11V9V0H227V454H281Q308
454 348 447Q376 441 376 439Q361 515 279 514L228 513V614Q228 635 246 650Q265 664 290 664Z" />
<glyph unicode="g" glyph-name="g" horiz-adv-x="535" d="M487 526H365V483Q335 527 258 532Q162 532 104 454Q45 377 45 247Q45 137 107 66Q170 -6 265 -6Q324 -6 360 39V21V3Q360 -164 222 -164Q142 -164 87 -97V-183Q140 -218 250 -223Q390 -223 443 -147Q487
-83 487 60V526ZM355 79Q339 51 301 51Q236 51 207 110Q180 162 180 248Q180 352 192 405Q210 485 264 485Q331 485 355 419V79Z" />
<glyph unicode="h" glyph-name="h" horiz-adv-x="544" d="M475 0V398Q475 532 331 532Q278 532 239 505Q210 484 198 455V714H73V0H198V398Q225 448 275 448Q304 448 327 425Q349 401 349 374V0H475Z" />
<glyph unicode="i" glyph-name="i" horiz-adv-x="287" d="M206 0V526H82V0H206ZM80 636T98 618T144 600Q170 600 188 618Q207 637 207 662T188 706Q170 724 144 724Q116 724 98 706T80 662Z" />
<glyph unicode="j" glyph-name="j" horiz-adv-x="312" d="M238 -68L237 526H114L115 -99Q115 -123 94 -141Q72 -157 44 -157Q-12 -157 -50 -100V-183Q7 -222 76 -222Q148 -222 194 -181Q238 -139 238 -68ZM130 617Q148 599 175 599T220 617Q239 636 239 661Q239
687 220 706Q202 724 175 724T130 706Q111 688 111 661Q111 635 130 617Z" />
<glyph unicode="k" glyph-name="k" horiz-adv-x="524" d="M385 0H529L401 210Q383 237 367 255Q325 301 291 307L513 526H400L304 431Q207 334 192 266Q192 267 192 275T192 300T191 335V714H67V0H191V132Q190 207 237 253Q255 234 282 187Q302 147 385 0Z" />
<glyph unicode="l" glyph-name="l" horiz-adv-x="262" d="M198 714H74V0H198V714Z" />
<glyph unicode="m" glyph-name="m" horiz-adv-x="826" d="M759 0L758 387Q758 462 711 501Q669 532 612 532Q516 532 477 443Q451 532 341 532Q309 529 285 520Q223 496 199 438L197 526H76V0H201L203 374Q204 391 223 416Q248 447 284 447Q309 447 332 424T355
372L354 0H480V375Q503 446 556 446Q585 446 609 419Q632 391 632 363V316L633 0H759Z" />
<glyph unicode="n" glyph-name="n" horiz-adv-x="546" d="M431 501Q391 532 340 532Q309 529 285 520Q223 496 199 436V526H73V0H199V374Q202 390 220 411Q244 438 283 438Q307 438 330 415Q352 390 353 364V0H479V384Q479 460 431 501Z" />
<glyph unicode="o" glyph-name="o" horiz-adv-x="540" d="M435 461Q369 532 267 532Q169 532 99 453Q30 374 30 263Q30 133 99 61Q163 -6 267 -6Q365 -6 434 73Q504 152 504 263Q504 386 435 461ZM338 117Q306 54 265 54Q222 54 190 117Q159 179 159 269T190 421Q222
485 265 485Q306 485 338 421Q369 356 369 269T338 117Z" />
<glyph unicode="p" glyph-name="p" horiz-adv-x="549" d="M450 451Q393 532 304 532Q272 532 244 517Q214 501 196 476V526H72V-215H196V26Q235 -6 284 -6Q377 -3 438 70Q502 149 502 274Q502 375 450 451ZM196 442Q212 470 248 470Q308 470 340 410Q367 359 367
272Q367 166 355 115Q337 35 285 35Q217 35 196 102V442Z" />
<glyph unicode="q" glyph-name="q" horiz-adv-x="561" d="M482 526H357V493Q321 532 260 532Q163 532 106 454T49 246Q49 138 106 67Q164 -6 271 -6Q294 -6 323 4Q352 15 358 24V-215H482V526ZM358 70Q335 48 311 48Q235 48 202 126Q181 174 181 244Q181 485 269
485Q326 485 358 413V395V70Z" />
<glyph unicode="r" glyph-name="r" horiz-adv-x="395" d="M384 405V506Q361 532 313 532Q290 529 272 519Q226 491 204 428V526H80L81 0H204V351Q204 380 234 411Q267 444 307 444Q348 444 384 405Z" />
<glyph unicode="s" glyph-name="s" horiz-adv-x="386" d="M208 196Q237 169 237 139Q237 97 211 76Q185 50 134 51Q101 51 72 73Q45 92 34 113V31Q83 -6 163 -6Q238 -6 292 41Q350 93 350 166Q350 219 323 258Q297 293 244 327Q183 365 181 367Q146 393 146 428Q146
446 158 459Q173 476 203 476Q207 476 223 474Q283 464 320 413V490Q305 503 272 516Q227 532 189 532Q127 532 80 494Q33 457 33 404Q33 302 138 242Q192 210 208 196Z" />
<glyph unicode="t" glyph-name="t" horiz-adv-x="349" d="M248 464H253Q258 465 262 465Q304 465 340 450L341 526H225V647Q201 604 138 549Q69 489 9 465L102 464V0H225V464H248Z" />
<glyph unicode="u" glyph-name="u" horiz-adv-x="558" d="M125 25Q162 -6 223 -6Q253 -3 279 5Q338 24 357 77V0H480V525H357V141Q350 122 340 111Q315 80 273 80Q202 80 201 162V526H78L77 141Q77 61 125 25Z" />
<glyph unicode="v" glyph-name="v" horiz-adv-x="531" d="M191 0H349Q349 39 380 126L519 526H409Q406 495 391 447L346 312Q294 162 288 89L143 526H17L191 0Z" />
<glyph unicode="w" glyph-name="w" horiz-adv-x="770" d="M631 130L750 526H644Q643 505 633 466L590 313Q553 164 550 94L449 526H333Q341 468 341 446Q338 406 324 352Q321 342 312 309T295 253Q264 138 264 104L147 526H19L164 0H306Q303 20 310 51Q314 73
332 130Q349 191 383 296L455 0H604Q604 40 631 130Z" />
<glyph unicode="x" glyph-name="x" horiz-adv-x="535" d="M363 0H513L340 279L513 526H383Q383 508 342 448L286 370L189 525H42L207 255L73 64Q59 46 30 0H157Q154 11 189 62Q201 82 261 167L363 0Z" />
<glyph unicode="y" glyph-name="y" horiz-adv-x="551" d="M228 -6Q264 -4 284 16L223 -215H345L526 526H396Q397 511 382 431Q350 305 296 74Q290 52 267 52Q231 52 215 165Q212 174 203 243L160 526H30L94 158Q122 -3 228 -6Z" />
<glyph unicode="z" glyph-name="z" horiz-adv-x="548" d="M507 98Q484 62 402 59Q310 59 213 60L526 526H203Q172 523 148 514Q91 490 85 433Q110 465 210 468H337L20 0H402Q431 2 452 12Q504 36 507 98Z" />
<glyph unicode="{" glyph-name="braceleft" horiz-adv-x="321" d="M187 698Q166 660 166 626V393Q166 319 93 279Q166 249 166 181V-72Q166 -170 259 -212H143Q62 -164 62 -89V181Q62 245 7 276Q62 313 62 387V616Q62 724 156 767H260Q211 742 187 698Z" />
<glyph unicode="|" glyph-name="bar" horiz-adv-x="293" d="M93 771V-212H201V771H93Z" />
<glyph unicode="}" glyph-name="braceright" horiz-adv-x="267" d="M81 698Q54 743 8 767H112Q205 724 205 616V387Q205 311 261 276Q205 247 205 181V-89Q205 -164 125 -212H9Q101 -170 101 -72V181Q101 249 174 279Q101 318 101 393V626Q101 660 81 698Z" />
<glyph unicode="~" glyph-name="asciitilde" horiz-adv-x="508" d="M58 214L44 255Q94 300 157 300Q188 300 219 288Q250 277 257 275Q279 268 303 268Q341 268 380 292L395 249Q363 217 311 206Q259 194 217 212Q177 227 167 230Q142 236 119 233Q96 230 58 214Z" />
</font>
</defs>
</svg>
